<svg width="109" height="18" viewBox="0 0 109 18" fill="none" xmlns="http://www.w3.org/2000/svg">
<path d="M6.22301 17H0.42223V0.636363H6.27095C7.9169 0.636363 9.33381 0.963956 10.5217 1.61914C11.7095 2.269 12.623 3.20383 13.2623 4.42365C13.9068 5.64347 14.229 7.10298 14.229 8.8022C14.229 10.5067 13.9068 11.9716 13.2623 13.1967C12.623 14.4219 11.7042 15.362 10.5057 16.0172C9.3125 16.6724 7.88494 17 6.22301 17ZM3.88192 14.0357H6.07919C7.10192 14.0357 7.96218 13.8546 8.65998 13.4924C9.3631 13.1248 9.89045 12.5575 10.242 11.7905C10.5989 11.0181 10.7773 10.022 10.7773 8.8022C10.7773 7.59304 10.5989 6.60494 10.242 5.83789C9.89045 5.07085 9.36577 4.50621 8.66797 4.144C7.97017 3.78178 7.10991 3.60067 6.08718 3.60067H3.88192V14.0357ZM16.7919 17V0.636363H27.8181V3.48881H20.2516V7.38796H27.2508V10.2404H20.2516V14.1475H27.8501V17H16.7919ZM33.525 0.636363L37.4801 13.0689H37.6319L41.595 0.636363H45.4302L39.7892 17H35.3308L29.6818 0.636363H33.525ZM47.1501 17.2077C46.6227 17.2077 46.17 17.0213 45.7918 16.6484C45.4189 16.2702 45.2325 15.8175 45.2325 15.2901C45.2325 14.7681 45.4189 14.3207 45.7918 13.9478C46.17 13.5749 46.6227 13.3885 47.1501 13.3885C47.6614 13.3885 48.1089 13.5749 48.4924 13.9478C48.8759 14.3207 49.0677 14.7681 49.0677 15.2901C49.0677 15.6417 48.9771 15.964 48.796 16.2569C48.6203 16.5446 48.3885 16.7763 48.1009 16.9521C47.8133 17.1225 47.4963 17.2077 47.1501 17.2077ZM55.266 9.90483V17H51.8622V4.72727H55.1062V6.89258H55.25C55.5217 6.1788 55.9771 5.61417 56.6163 5.19869C57.2555 4.77788 58.0305 4.56747 58.9414 4.56747C59.7937 4.56747 60.5368 4.75391 61.1706 5.12678C61.8045 5.49964 62.2972 6.03231 62.6488 6.72479C63.0004 7.41193 63.1761 8.23224 63.1761 9.18572V17H59.7724V9.79297C59.7777 9.0419 59.5859 8.45597 59.1971 8.03516C58.8082 7.60902 58.2729 7.39595 57.5911 7.39595C57.133 7.39595 56.7282 7.4945 56.3766 7.69158C56.0304 7.88867 55.7587 8.17631 55.5616 8.55451C55.3699 8.92738 55.2713 9.37749 55.266 9.90483ZM71.4518 17.2397C70.1894 17.2397 69.1028 16.984 68.1919 16.4727C67.2864 15.956 66.5886 15.2262 66.0985 14.2834C65.6084 13.3352 65.3634 12.214 65.3634 10.9196C65.3634 9.65714 65.6084 8.54918 66.0985 7.5957C66.5886 6.64222 67.2784 5.89915 68.1679 5.36648C69.0628 4.83381 70.1122 4.56747 71.316 4.56747C72.1257 4.56747 72.8794 4.69798 73.5772 4.95898C74.2803 5.21467 74.8929 5.60085 75.4149 6.11754C75.9423 6.63423 76.3524 7.28409 76.6454 8.06712C76.9383 8.84482 77.0848 9.75568 77.0848 10.7997V11.7346H66.7217V9.62518H73.8808C73.8808 9.13512 73.7743 8.70099 73.5612 8.3228C73.3481 7.9446 73.0525 7.64897 72.6743 7.4359C72.3014 7.21751 71.8673 7.10831 71.3719 7.10831C70.8552 7.10831 70.3972 7.22816 69.9976 7.46786C69.6035 7.70224 69.2945 8.01918 69.0708 8.41868C68.8471 8.81285 68.7326 9.25231 68.7272 9.73704V11.7425C68.7272 12.3498 68.8391 12.8745 69.0628 13.3166C69.2919 13.7587 69.6141 14.0996 70.0296 14.3393C70.4451 14.579 70.9378 14.6989 71.5078 14.6989C71.886 14.6989 72.2322 14.6456 72.5465 14.5391C72.8608 14.4325 73.1297 14.2727 73.3535 14.0597C73.5772 13.8466 73.7476 13.5856 73.8648 13.2766L77.0129 13.4844C76.8531 14.2408 76.5255 14.9013 76.0301 15.4659C75.5401 16.0252 74.9062 16.462 74.1285 16.7763C73.3561 17.0852 72.4639 17.2397 71.4518 17.2397ZM81.6392 17L78.2993 4.72727H81.743L83.6447 12.973H83.7565L85.7381 4.72727H89.1179L91.1313 12.9251H91.2352L93.1049 4.72727H96.5406L93.2088 17H89.6052L87.4959 9.2816H87.3441L85.2347 17H81.6392ZM108.568 8.22692L105.452 8.41868C105.398 8.15234 105.284 7.91264 105.108 7.69957C104.932 7.48118 104.7 7.30806 104.413 7.18022C104.131 7.04705 103.792 6.98047 103.398 6.98047C102.871 6.98047 102.426 7.09233 102.064 7.31605C101.702 7.53445 101.52 7.82741 101.52 8.19496C101.52 8.48793 101.638 8.73562 101.872 8.93803C102.106 9.14045 102.509 9.30291 103.078 9.42543L105.3 9.87287C106.493 10.1179 107.382 10.5121 107.968 11.0554C108.554 11.5987 108.847 12.3125 108.847 13.1967C108.847 14.0011 108.61 14.7069 108.136 15.3141C107.667 15.9213 107.023 16.3954 106.203 16.7363C105.388 17.0719 104.447 17.2397 103.382 17.2397C101.757 17.2397 100.463 16.9015 99.4989 16.225C98.5401 15.5431 97.9782 14.6163 97.813 13.4444L101.161 13.2686C101.262 13.764 101.507 14.1422 101.896 14.4032C102.285 14.6589 102.783 14.7868 103.39 14.7868C103.987 14.7868 104.466 14.6722 104.828 14.4432C105.196 14.2088 105.382 13.9078 105.388 13.5403C105.382 13.2314 105.252 12.9783 104.996 12.7812C104.74 12.5788 104.346 12.4244 103.814 12.3178L101.688 11.8944C100.49 11.6547 99.5975 11.2392 99.0115 10.6479C98.4309 10.0566 98.1406 9.30291 98.1406 8.38672C98.1406 7.59837 98.3537 6.91921 98.7798 6.34925C99.2113 5.7793 99.8159 5.33984 100.594 5.03089C101.377 4.72195 102.293 4.56747 103.342 4.56747C104.892 4.56747 106.112 4.89506 107.002 5.55025C107.896 6.20543 108.419 7.09766 108.568 8.22692Z" fill="#E1E1E6"/>
</svg>
